# xmcd CD database file
#
# Track frame offsets:
#	150
#	20575
#	47773
#	78551
#	95632
#	118179
#	136055
#	159390
#	182201
#	207053
#	229445
#	243870
#	269572
#	288023
#
# Disc length: 4193 seconds
#
# Revision: 3
# Processed by: cddbd v1.4PL0 Copyright (c) Steve Scherf et al.
# Submitted via: CDex 1.51
#
DISCID=c3105f0e
DTITLE=Billy Idol - Vh1 Storytellers
DYEAR=2002
DGENRE=Rock and Roll
TTITLE0=Cradle Of Love
TTITLE1=Don't Need A Gun
TTITLE2=Flesh For Fantasy
TTITLE3=White Wedding
TTITLE4=Sweet Sixteen
TTITLE5=To be a lover
TTITLE6=Rebel Yell
TTITLE7=Kiss Me Deadly
TTITLE8=Eyes Without A Face
TTITLE9=Dancing With Myself
TTITLE10=Ready Steady Go
TTITLE11=Blue Highway
TTITLE12=Mony, Mony
TTITLE13=L.A. Woman
EXTD=YEAR: 2002
EXTT0=
EXTT1=
EXTT2=
EXTT3=
EXTT4=
EXTT5=
EXTT6=
EXTT7=
EXTT8=
EXTT9=
EXTT10=
EXTT11=
EXTT12=
EXTT13=
PLAYORDER=
